<?xml version="1.0" standalone="no"?>
<!DOCTYPE svg PUBLIC "-//W3C//DTD SVG 20010904//EN"
 "http://www.w3.org/TR/2001/REC-SVG-20010904/DTD/svg10.dtd">
<svg version="1.0" xmlns="http://www.w3.org/2000/svg"
 width="1008.000000pt" height="744.000000pt" viewBox="0 0 1008.000000 744.000000"
 preserveAspectRatio="xMidYMid meet">
<metadata>
Created by potrace 1.13, written by Peter Selinger 2001-2015
</metadata>
<g transform="translate(0.000000,744.000000) scale(0.100000,-0.100000)"
fill="#000000" stroke="none">
<path d="M5485 6955 c-39 -7 -134 -32 -210 -55 -192 -58 -185 -57 -185 -27 0
50 -66 50 -167 0 -103 -52 -235 -154 -291 -224 -42 -52 -51 -59 -84 -59 -97 0
-285 -53 -411 -116 -355 -178 -678 -562 -760 -905 l-22 -91 -91 -74 c-133
-107 -212 -210 -200 -259 7 -27 41 -41 79 -32 15 4 5 -10 -34 -46 -104 -97
-209 -254 -209 -314 0 -60 50 -64 123 -9 86 64 91 63 38 -8 -94 -124 -141
-243 -141 -357 0 -32 -7 -88 -16 -126 -12 -51 -16 -115 -16 -252 1 -217 7
-216 -115 -32 -42 64 -84 122 -92 129 -8 6 -30 12 -48 12 -172 0 -177 -549 -9
-885 29 -58 49 -105 44 -105 -16 0 -82 38 -147 84 -68 48 -100 56 -121 31 -39
-46 57 -312 188 -522 270 -436 685 -746 1188 -887 123 -35 372 -84 465 -92 43
-4 82 -9 87 -13 7 -4 4 -50 -8 -136 -46 -318 -101 -438 -343 -752 -170 -221
-188 -258 -151 -311 20 -30 72 -29 239 3 71 14 148 25 170 25 54 0 125 -36
203 -105 38 -33 73 -55 87 -55 13 0 57 23 99 51 68 46 87 54 174 70 132 25
215 24 268 -1 32 -16 47 -18 68 -10 31 11 51 49 43 82 -4 13 -131 147 -283
298 -151 151 -283 289 -292 305 -14 25 -18 70 -20 276 l-3 246 158 6 c87 4
189 10 226 13 l68 7 -3 -226 -3 -226 -51 -53 c-29 -29 -57 -63 -63 -75 -19
-37 -13 -82 15 -110 23 -23 562 -293 823 -413 134 -61 171 -69 206 -46 42 28
33 62 -30 122 l-55 53 20 52 c12 28 32 71 46 95 l26 44 72 0 c79 0 96 9 96 51
0 48 -62 87 -165 104 -46 8 -36 16 41 34 60 14 94 42 94 76 0 24 -23 54 -43
56 -7 1 -160 3 -342 4 -249 1 -342 5 -380 16 -48 14 -50 15 -53 54 -4 41 21
261 41 374 l12 64 125 33 c174 46 316 96 447 159 95 46 119 63 164 115 30 33
60 60 69 60 9 0 27 -13 42 -30 34 -39 53 -38 98 8 38 38 60 91 60 148 0 40 10
49 25 21 8 -15 19 -21 35 -19 34 4 56 27 88 91 26 54 27 62 27 209 -1 150 0
153 20 147 56 -18 66 -17 91 5 64 61 60 255 -11 560 -41 173 -55 274 -55 386
l0 101 88 17 c303 59 872 199 908 223 14 9 34 33 44 53 26 51 37 58 141 86
147 39 195 81 168 146 -16 39 -73 70 -231 127 -251 91 -375 152 -504 252 -104
80 -315 319 -403 456 -32 52 -33 54 -21 105 27 112 -8 342 -80 522 -77 195
-167 336 -294 461 -135 132 -312 235 -496 288 l-85 25 40 16 c22 10 69 24 105
32 97 22 110 29 110 62 0 16 -8 37 -19 46 -49 44 -230 87 -381 89 -54 1 -95 6
-90 10 4 5 47 24 95 42 48 18 96 40 106 49 25 21 24 51 -3 70 -28 20 -170 20
-273 1z m190 -43 c-6 -5 -46 -24 -90 -41 -44 -18 -111 -52 -150 -75 -56 -34
-70 -47 -70 -66 0 -30 11 -30 150 -10 55 7 121 10 170 6 93 -8 245 -41 270
-60 15 -11 10 -14 -41 -25 -77 -17 -198 -68 -221 -93 -29 -33 -6 -49 113 -78
173 -44 285 -95 415 -191 128 -95 264 -259 342 -415 36 -72 95 -245 118 -344
15 -68 27 -250 17 -250 -2 0 -44 40 -94 89 -75 72 -109 98 -185 135 -120 59
-200 76 -364 76 -254 -1 -271 -6 -829 -235 -468 -192 -497 -201 -667 -214
-156 -12 -213 -29 -263 -77 -52 -51 -66 -85 -78 -191 -22 -194 25 -413 126
-579 119 -197 260 -325 471 -429 184 -91 363 -137 590 -153 92 -6 96 -7 50
-13 -27 -4 -162 -8 -299 -8 -270 -1 -383 11 -730 80 -362 72 -726 234 -798
355 -25 43 -52 44 -78 2 -24 -39 -26 -107 -6 -191 l14 -59 -30 28 c-41 40 -85
112 -110 181 -16 44 -22 83 -22 158 l-1 100 -30 0 c-26 0 -33 -7 -58 -56 -18
-35 -33 -87 -41 -140 l-12 -84 -22 35 c-48 77 -52 198 -11 335 44 152 43 145
26 162 -10 10 -24 13 -40 9 -36 -9 -140 -125 -187 -209 l-40 -72 0 70 c0 135
59 251 197 397 46 47 83 91 83 96 0 16 -30 42 -48 42 -24 0 -127 -51 -189 -93
-29 -20 -53 -33 -53 -30 0 3 25 43 55 88 59 89 130 160 255 255 44 34 80 68
80 76 0 25 -29 28 -89 9 -31 -10 -75 -24 -99 -31 l-43 -13 18 30 c22 37 116
128 198 190 59 44 60 46 78 124 76 323 321 648 643 850 143 90 320 150 501
170 57 6 64 10 83 40 43 70 192 190 307 249 64 32 78 33 63 7 -16 -30 -13 -71
5 -71 9 0 60 16 115 34 212 74 361 109 530 125 8 0 10 -2 5 -7z m579 -1419
c131 -33 264 -115 350 -216 24 -29 68 -92 99 -142 124 -201 350 -449 498 -548
108 -72 277 -152 444 -211 132 -47 207 -83 209 -100 2 -20 -68 -48 -201 -81
-202 -49 -424 -92 -538 -105 -212 -23 -614 -50 -735 -50 -323 0 -766 57 -975
126 -239 79 -429 232 -522 419 -39 76 -38 80 11 109 46 27 86 69 86 91 0 30
-33 24 -77 -14 -56 -50 -114 -70 -234 -79 -85 -6 -94 -9 -94 -27 0 -19 7 -20
110 -20 l110 1 42 -86 c23 -47 64 -112 90 -145 108 -134 316 -265 504 -319
204 -58 646 -109 954 -109 312 -1 766 43 1039 99 66 13 122 21 125 18 3 -3 -6
-16 -21 -29 -57 -49 -1004 -258 -1354 -299 -792 -91 -1276 0 -1595 301 -186
175 -293 395 -306 628 -7 131 8 226 43 272 42 55 93 72 266 88 179 17 212 27
558 170 387 160 573 233 641 250 132 35 353 39 473 8z m-3100 -1084 c-10 -39
-16 -103 -16 -165 0 -89 3 -109 26 -160 35 -75 62 -104 98 -104 24 0 32 7 44
35 7 19 14 51 15 72 0 21 4 47 8 58 6 15 9 7 14 -31 4 -27 23 -83 42 -123 19
-40 35 -74 35 -76 0 -2 -22 -17 -50 -35 -72 -46 -188 -174 -239 -263 -100
-177 -160 -358 -181 -547 -13 -116 -6 -195 17 -204 27 -11 33 5 33 93 0 216
82 481 205 667 58 87 166 195 220 221 l34 16 56 -51 c41 -38 65 -52 86 -52 16
0 32 6 35 13 3 8 -7 58 -21 111 -14 54 -25 114 -25 133 l0 34 38 -37 c41 -40
179 -128 228 -146 l31 -11 -5 -68 c-2 -38 0 -81 7 -100 6 -18 9 -34 7 -37 -9
-9 -72 38 -120 88 -27 28 -53 49 -60 47 -32 -10 -10 -182 38 -299 13 -32 20
-58 16 -58 -23 0 -131 45 -205 85 -103 56 -120 55 -111 -11 9 -72 77 -189 171
-296 94 -107 93 -112 -10 -84 -67 17 -128 50 -174 91 -65 59 -86 44 -71 -50
13 -78 64 -169 137 -242 68 -68 175 -126 338 -183 49 -17 92 -34 95 -37 12
-13 -228 6 -273 22 -90 32 -105 -8 -25 -70 209 -162 410 -241 682 -265 205
-19 459 15 677 89 170 58 190 71 155 100 -12 10 -35 5 -110 -24 -117 -43 -292
-89 -404 -105 -116 -17 -371 -7 -482 18 -152 36 -309 101 -389 162 -24 18 -23
18 110 18 146 -1 236 17 352 69 47 21 57 30 55 47 -4 28 -36 26 -118 -10 -36
-15 -78 -27 -95 -27 -36 1 -351 115 -417 150 -63 34 -168 145 -202 212 -15 29
-24 51 -19 49 4 -2 37 -18 73 -36 111 -54 256 -61 459 -22 29 5 55 10 57 10
11 0 2 41 -10 46 -8 3 -61 -2 -118 -11 l-103 -17 -78 84 c-89 95 -160 189
-182 242 -8 20 -13 36 -11 36 2 0 42 -18 88 -40 100 -48 178 -68 278 -72 74
-3 75 -3 75 22 0 23 -4 25 -58 28 l-59 3 -23 52 c-24 54 -65 181 -65 200 0 6
10 1 23 -10 56 -52 226 -123 261 -110 29 11 17 38 -23 54 -32 12 -43 25 -59
62 -25 59 -35 106 -27 130 5 16 18 6 88 -63 56 -56 105 -93 155 -120 75 -39
102 -41 102 -8 0 13 -20 29 -64 52 -58 29 -182 127 -173 136 2 2 53 -12 113
-30 116 -36 266 -68 529 -113 152 -27 176 -28 470 -28 171 1 373 6 450 13 165
15 395 47 481 67 33 8 137 26 230 40 93 15 173 27 179 28 6 1 13 -50 17 -128
3 -71 15 -173 26 -225 12 -52 35 -160 52 -240 50 -235 43 -412 -15 -402 -86
15 -93 14 -101 -10 -5 -12 -7 -84 -5 -158 2 -141 -9 -201 -46 -242 -15 -17
-17 -17 -34 12 -11 17 -27 30 -38 30 -25 0 -51 -36 -51 -70 0 -45 -30 -144
-50 -164 -19 -19 -20 -19 -44 7 -19 20 -35 27 -62 27 -33 0 -45 -8 -103 -69
-76 -79 -172 -130 -373 -200 -674 -232 -1466 -226 -2090 14 -435 168 -818 519
-1033 946 -37 72 -105 263 -105 292 0 12 18 4 64 -28 179 -125 302 -125 216 0
-103 149 -170 401 -170 636 0 122 24 221 63 257 l23 22 20 -22 c11 -13 33 -43
48 -68 115 -182 178 -243 214 -206 15 15 17 43 17 219 0 111 4 210 9 220 4 9
16 17 26 17 37 0 52 14 86 83 33 68 104 171 111 163 2 -2 -3 -32 -13 -67z
m2112 -2671 c-18 -87 -47 -354 -44 -404 2 -47 7 -60 28 -75 45 -33 150 -42
474 -41 170 0 305 -3 300 -7 -5 -4 -40 -16 -79 -26 -101 -26 -135 -44 -135
-72 0 -27 36 -48 100 -57 25 -4 69 -14 99 -22 121 -34 -28 -40 -308 -13 -90 9
-106 8 -120 -5 -30 -31 4 -44 152 -59 75 -8 140 -16 143 -19 3 -4 -6 -28 -19
-55 -32 -61 -50 -128 -42 -153 3 -10 29 -36 58 -56 28 -21 47 -39 40 -41 -6
-2 -40 8 -74 23 -104 43 -801 383 -841 410 -51 33 -48 55 11 112 77 75 76 69
79 330 4 263 -8 232 97 251 87 15 88 15 81 -21z m-769 -28 c21 0 21 -1 25
-252 3 -252 3 -253 30 -303 19 -36 100 -122 288 -304 261 -254 295 -291 266
-291 -18 0 -147 87 -270 182 -93 72 -121 80 -121 38 0 -19 22 -41 103 -103 57
-44 102 -81 99 -83 -2 -2 -55 -13 -118 -24 -63 -11 -124 -22 -136 -26 -19 -5
-27 4 -67 83 -46 92 -68 119 -86 108 -20 -12 -9 -51 39 -143 l50 -92 -34 -26
-33 -25 -71 57 c-39 31 -71 58 -71 59 0 2 11 50 24 107 14 57 28 134 32 171
l6 69 -28 -4 c-27 -3 -29 -6 -36 -63 -4 -33 -18 -104 -30 -158 -18 -81 -24
-97 -37 -91 -42 18 -134 13 -281 -14 -92 -18 -159 -26 -165 -21 -15 14 14 59
142 224 250 323 315 463 358 775 24 173 20 164 63 156 20 -3 47 -6 59 -6z"/>
<path d="M4800 5962 c-106 -57 -151 -252 -90 -390 104 -235 360 -105 337 171
-15 172 -136 279 -247 219z m83 -49 c14 -111 -51 -222 -142 -239 l-34 -7 5 67
c10 115 76 215 144 216 18 0 23 -7 27 -37z"/>
<path d="M5851 4911 c-12 -12 -21 -26 -21 -33 0 -7 -12 -24 -26 -39 -19 -19
-24 -33 -19 -48 8 -25 54 -51 91 -51 36 0 104 68 104 104 0 29 -40 76 -64 76
-8 0 -21 3 -29 6 -9 3 -25 -4 -36 -15z"/>
</g>
</svg>
