<?xml version="1.0" standalone="no"?>
<!DOCTYPE svg PUBLIC "-//W3C//DTD SVG 20010904//EN"
 "http://www.w3.org/TR/2001/REC-SVG-20010904/DTD/svg10.dtd">
<svg version="1.0" xmlns="http://www.w3.org/2000/svg"
 width="1008.000000pt" height="744.000000pt" viewBox="0 0 1008.000000 744.000000"
 preserveAspectRatio="xMidYMid meet">
<metadata>
Created by potrace 1.13, written by Peter Selinger 2001-2015
</metadata>
<g transform="translate(0.000000,744.000000) scale(0.100000,-0.100000)"
fill="#000000" stroke="none">
<path d="M3160 6493 c-475 -44 -970 -236 -1414 -547 -249 -175 -529 -435 -663
-616 -233 -315 -385 -678 -454 -1081 -31 -181 -34 -590 -6 -769 93 -584 362
-1047 767 -1317 41 -28 90 -58 108 -67 30 -16 33 -20 27 -49 -21 -99 -88 -193
-169 -234 -75 -39 -193 -44 -256 -11 -59 30 -96 101 -109 212 -12 97 -29 119
-94 119 -84 0 -165 -69 -198 -168 -18 -54 -15 -205 6 -285 72 -275 336 -518
668 -614 169 -49 276 -57 432 -31 219 36 313 18 575 -109 107 -52 213 -100
235 -106 68 -17 247 -12 358 11 56 11 219 59 362 107 l260 87 135 -1 c164 -1
219 -16 484 -129 282 -120 319 -129 516 -129 281 1 439 47 810 235 130 66 262
126 295 134 109 27 200 18 504 -51 176 -40 296 -52 358 -35 57 16 121 67 158
126 27 43 30 57 29 124 0 63 -7 92 -38 171 -97 245 -101 259 -101 360 0 74 5
112 24 169 63 192 252 418 476 568 219 147 542 243 821 244 127 1 139 -2 346
-80 72 -27 118 -27 152 0 32 25 34 68 6 135 -11 26 -19 48 -18 49 2 1 68 7
148 13 187 15 291 41 419 103 133 65 226 153 288 274 49 96 60 129 72 220 21
145 -13 248 -133 404 -158 206 -243 360 -356 641 -92 230 -146 329 -239 447
-27 35 -41 63 -42 85 -1 24 -3 27 -6 11 -2 -13 -7 -23 -10 -23 -3 0 -39 32
-80 70 -85 79 -222 174 -327 227 -39 19 -73 37 -75 39 -7 6 75 89 131 134 l47
38 57 -29 c108 -55 249 -31 320 54 50 59 67 112 62 191 -5 82 -23 122 -79 176
-143 139 -423 57 -440 -130 -3 -31 -11 -39 -69 -75 -115 -70 -163 -107 -245
-186 l-80 -77 -102 5 c-57 3 -103 10 -103 16 0 59 82 255 139 334 28 39 33 42
57 33 34 -13 108 -13 156 2 51 15 126 82 149 133 25 54 25 156 0 210 -23 52
-74 103 -126 126 -46 21 -142 24 -192 6 -108 -40 -180 -142 -170 -242 5 -45 2
-56 -15 -72 -36 -31 -143 -175 -186 -248 -53 -90 -82 -175 -126 -367 -5 -22
-21 -35 -79 -64 -316 -159 -505 -410 -577 -765 -22 -107 -42 -405 -33 -493 5
-55 -18 -382 -43 -591 -32 -270 -86 -490 -157 -635 -55 -113 -176 -213 -284
-235 l-31 -6 19 61 c54 173 -8 316 -136 314 -58 -1 -93 -17 -234 -109 -121
-79 -169 -102 -177 -82 -5 15 -1 26 88 247 97 239 124 380 134 710 30 893
-275 1640 -861 2113 -343 277 -810 480 -1270 553 -97 15 -494 27 -595 17z
m488 -64 c388 -42 831 -204 1168 -428 659 -436 1014 -1170 1014 -2091 0 -373
-33 -549 -160 -855 -70 -168 -79 -205 -56 -240 13 -20 25 -25 57 -25 47 0 85
18 218 106 118 77 181 102 217 85 68 -31 83 -138 37 -263 -24 -63 -38 -84
-113 -159 -47 -48 -124 -112 -173 -144 -385 -250 -1091 -408 -1922 -431 l-220
-6 97 66 c371 256 647 603 770 969 94 282 102 630 23 942 -134 521 -402 874
-824 1085 -489 245 -1122 213 -1561 -79 -357 -237 -504 -522 -504 -976 1 -136
5 -190 23 -273 48 -227 124 -377 260 -513 178 -177 368 -249 660 -249 155 0
221 13 321 63 202 101 315 358 245 558 -50 140 -177 181 -329 106 -89 -45
-213 -154 -203 -180 11 -29 36 -19 110 44 78 66 156 108 215 116 110 13 191
-121 165 -273 -30 -173 -159 -312 -334 -357 -126 -33 -304 -29 -454 9 -85 22
-209 83 -284 139 -317 241 -433 809 -259 1270 40 108 87 180 180 280 219 235
541 382 909 417 330 30 698 -63 977 -249 107 -71 265 -222 347 -332 130 -172
246 -445 303 -711 24 -113 27 -145 27 -335 0 -229 -9 -294 -67 -470 -106 -328
-351 -654 -672 -894 -158 -118 -267 -177 -370 -201 -273 -61 -494 -84 -796
-84 -257 0 -352 8 -558 49 -412 84 -797 303 -1032 590 -387 472 -534 1191
-384 1875 39 176 107 369 194 545 132 268 231 405 451 621 500 489 1145 815
1749 883 110 12 426 13 538 0z m4422 -109 c97 -50 131 -163 78 -265 -43 -82
-154 -118 -246 -79 l-37 15 -38 -43 c-38 -44 -111 -178 -141 -258 -9 -25 -22
-74 -29 -108 l-13 -64 -89 -29 c-49 -15 -91 -27 -93 -25 -2 3 8 48 23 103 45
173 120 303 252 444 l64 68 -12 39 c-16 54 -4 105 34 149 62 70 168 93 247 53z
m578 -335 c98 -42 149 -161 111 -262 -18 -49 -79 -103 -136 -119 -48 -14 -58
-14 -106 0 -29 8 -64 27 -77 41 -13 14 -30 25 -37 25 -25 0 -106 -62 -183
-140 l-75 -75 -75 24 c-41 13 -77 26 -80 29 -17 15 230 203 332 253 46 22 47
24 42 58 -18 121 153 220 284 166z m-655 -544 c151 -41 332 -132 473 -237 86
-64 194 -163 194 -178 0 -7 -6 -21 -14 -31 -13 -18 -16 -17 -60 22 -111 98
-234 75 -293 -54 l-25 -55 -32 31 c-31 30 -32 35 -29 94 l3 62 -20 -52 c-20
-49 -23 -52 -46 -43 -37 15 -101 12 -134 -5 -71 -37 -110 -130 -110 -264 0
-192 90 -375 220 -449 l48 -28 -39 -58 c-21 -32 -39 -62 -39 -67 0 -4 20 12
45 36 25 24 71 56 103 72 48 24 69 28 140 28 69 0 80 2 65 13 -10 7 -36 18
-58 24 -22 6 -41 12 -42 13 -2 1 6 19 17 40 11 22 20 45 20 52 0 19 9 16 48
-18 38 -34 106 -68 135 -69 19 0 23 -15 7 -25 -5 -3 -14 -15 -20 -25 -7 -13 4
-9 41 15 27 19 67 39 87 45 47 13 127 13 170 0 29 -8 32 -7 22 5 -19 23 -94
55 -128 55 l-31 0 21 48 c48 105 32 299 -35 433 -32 63 -33 66 -16 93 l17 28
44 -64 c71 -100 111 -179 198 -393 118 -292 190 -421 357 -642 123 -164 149
-249 119 -391 -37 -178 -161 -340 -316 -415 -162 -79 -355 -112 -606 -105
-124 3 -148 7 -226 34 -284 101 -500 353 -502 587 -1 58 2 70 18 79 42 24 103
89 126 135 18 35 25 70 28 130 4 83 4 83 -20 83 -24 0 -25 -4 -31 -70 -7 -88
-33 -145 -85 -192 -88 -79 -173 -73 -272 19 -39 35 -63 51 -74 47 -28 -11 -17
-40 34 -88 61 -57 120 -85 178 -86 l42 0 0 -57 c1 -314 318 -625 687 -674 l88
-12 23 -59 c26 -64 24 -88 -7 -88 -11 0 -75 21 -143 48 l-123 47 -180 -1
c-147 0 -199 -4 -285 -23 -317 -68 -552 -188 -764 -391 -165 -158 -277 -339
-310 -502 -29 -142 -19 -210 65 -426 90 -230 89 -284 -2 -366 -81 -73 -146
-74 -439 -7 -292 67 -419 74 -543 32 -30 -11 -155 -70 -278 -133 -324 -166
-490 -216 -739 -225 -121 -4 -145 -2 -232 20 -53 14 -182 62 -287 106 -292
123 -393 148 -568 139 -89 -5 -118 -12 -323 -82 -259 -88 -378 -120 -505 -136
-155 -19 -223 -3 -430 105 -77 41 -174 85 -216 99 -106 36 -241 43 -382 22
-134 -20 -225 -20 -317 -1 -447 94 -751 395 -754 745 0 79 3 102 21 135 25 48
58 80 97 95 50 19 62 7 69 -68 10 -101 33 -159 87 -213 57 -57 117 -74 227
-66 137 10 237 81 299 210 19 39 34 79 34 89 0 25 11 23 82 -13 305 -154 753
-228 1210 -200 219 13 421 40 588 77 98 22 154 27 375 34 841 28 1442 138
1862 340 193 93 354 208 428 308 27 36 35 41 87 46 78 9 187 65 252 131 92 91
166 269 215 514 46 227 81 597 81 856 1 502 77 776 280 997 144 158 373 285
625 347 62 16 239 5 328 -18z m515 -430 c68 -35 129 -114 167 -216 34 -90 33
-106 -6 -69 -25 24 -39 29 -79 29 -42 0 -54 -5 -85 -35 -59 -57 -81 -168 -50
-255 8 -21 13 -41 11 -43 -2 -1 -17 14 -33 35 -24 31 -31 52 -37 108 -9 93
-23 147 -57 224 -26 57 -28 68 -18 105 17 63 37 95 72 116 40 25 68 25 115 1z
m-333 -85 c67 -51 134 -166 159 -270 l7 -29 -36 31 c-70 62 -163 34 -206 -63
-23 -50 -25 -161 -4 -212 l16 -37 -26 24 c-74 69 -136 227 -139 350 -1 95 18
162 60 207 32 33 37 35 83 31 34 -3 62 -14 86 -32z"/>
</g>
</svg>
