<?xml version="1.0" encoding="utf-8"?>
<!-- Generator: Adobe Illustrator 16.0.0, SVG Export Plug-In . SVG Version: 6.00 Build 0)  -->
<!DOCTYPE svg PUBLIC "-//W3C//DTD SVG 1.1//EN" "http://www.w3.org/Graphics/SVG/1.1/DTD/svg11.dtd">
<svg version="1.1" id="Layer_1" xmlns="http://www.w3.org/2000/svg" xmlns:xlink="http://www.w3.org/1999/xlink" x="0px" y="0px"
	 width="950px" height="719px" viewBox="0 0 950 719" enable-background="new 0 0 950 719" xml:space="preserve">
<g transform="translate(0.000000,719.000000) scale(0.100000,-0.100000)">
	<path d="M500,6988.999c-82.998-8.999-270-46.001-307.002-60c-12.998-5-27.998-20-32.998-33.999
		c-15-40-12.002-182.998,6.001-276.001c35-183.999,150-531.001,238.999-651.997C477.002,5866,496.001,5742.998,520,5195
		c13.999-295,25-377.998,70-510c121.001-353.999,245-805,432.002-947.998C1136.001,3650,1323.999,3565,1480,3530
		c108.999-24.004,130-30.996,130-42.998c0-7.002-68.999-149.004-153.999-317.002c-203.003-402.002-188.003-332.998-205-564.004
		c-27.002-361.992,65-736.992,386.997-1580.996C1791.001,622.002,1811.001,534.004,1790,337.998c-7.002-65-10-122.002-6.001-125.996
		c11.001-10,287.002-6.006,402.002,7.998C2692.002,277.002,3160,477.002,3580,814.004c117.998,95,322.998,298.994,437.998,435.996
		c139.004,165.996,287.998,392.002,377.002,572.002l72.002,145.996l12.002-105.996C4519.003,1502.998,4585,1280,4670,1222.998
		c42.002-28.994,112.002-30.996,157.002-3.994c85,52.998,138.994,245,162.998,585c5.996,81.992,12.002,150.996,12.998,152.998
		c2.002,0.996,21.006-37.998,42.002-87.998c69.004-161.006,207.998-393.008,344.004-574.004
		c265-352.998,581.992-635.996,915.996-815.996C6672.998,280,6985.996,195,7425.996,175c135-7.002,152.002-5.996,168.008,10
		c8.994,10,15,24.004,11.992,32.002c-17.998,47.002-26.992,207.002-16.992,287.998c15,112.002,66.992,180.996,215.996,580
		c207.998,557.002,282.998,869.004,320.996,1117.002c21.006,137.998,21.006,297.002,0,415
		C8097.001,2784.004,8075,2930,7909.003,3259.004c-88.008,172.998-154.639,259.443-154.639,266.435
		c0,13.008,15.635,10.557,125.635,34.561c205.215,68.091,369.521,137.998,464.521,212.998
		c200,157.998,322.48,523.003,445.479,882.002c45.996,132.998,57.002,212.998,70,505c14.004,311.001,19.004,387.002,35.996,522.998
		c17.002,136.001,37.002,197.002,94.004,278.003c82.998,117.998,177.998,423.999,220,616.997
		c22.998,101.001,25.996,264.004,7.002,302.002c-36.006,71.001-500,121.001-801.006,86.001C7810.996,6896,7180,6517.001,6495,5956
		c-452.002-370-959.004-895-1400-1453.003l-120-150.996l-17.002,85c-20.996,100.996-57.002,185.996-97.998,227.998l-29.004,30
		l133.008,310c220,512.002,406.992,897.998,503.994,1038.999c42.998,63.003,52.002,71.001,94.004,82.002
		c57.998,13.999,102.002,41.001,150,91.001c45,46.997,57.998,78.999,57.998,145.996c0,77.002-17.998,97.002-85.996,97.002
		c-69.004,0-99.004-16.001-157.002-80c-51.006-56.001-82.998-135-72.998-181.001c3.994-23.999-4.004-43.999-50-111.001
		c-105-158.999-329.004-625-545-1135.996L4765,4730l-70.996,2.002l-71.006,2.998L4510,5000
		c-215,506.001-412.002,913.999-525,1087.002c-42.002,62.998-54.004,90-49.004,107.998c11.006,43.999-22.998,128.999-72.998,185
		c-55,61.001-92.998,80-162.002,80c-63.994,0-80.996-21.001-80.996-102.998c0-69.004,14.004-98.003,72.002-153.003
		C3740.996,6156,3780,6135,3832.001,6125c25-5,45-17.002,60.996-38.999c102.998-135,327.002-595,562.998-1150l93.008-220l-40-43.003
		C4460.996,4621,4437.998,4570,4415,4467.001L4397.998,4390l-120.996,152.002C3937.998,4972.001,3449.004,5505,3100,5816
		c-825,810.508-1492.998,1107.998-2163.999,1172.998C811.001,7002.001,610,7001,500,6988.999z M1062.998,6901
		c265-47.002,493.003-122.002,774.004-257.002c416.997-200,721.152-413.999,1357.998-1035c39.004-36.001,90-83.999,114.004-105
		c70.996-62.998,403.994-416.001,565-598.999C4012.998,4746,4237.998,4471,4340,4336l45-58.999l2.002-179.004
		c0.996-97.998,8.994-255.996,17.002-350.996C4412.998,3645,4420.996,3394.004,4425,3130c2.998-245,10-562.002,15.996-705
		l11.006-260.996l-31.006-91.006c-143.994-432.002-570-970.996-1032.998-1307.998
		c-310.996-225.996-700.996-392.002-1066.997-454.004c-118.003-20-456.001-48.994-465-40c-2.002,2.002,1.001,33.008,6.001,69.004
		c12.998,89.004,1.997,220-28.003,342.002C1818.999,739.004,1750,937.998,1680,1125c-283.999,755.996-362.002,1052.998-362.002,1370
		c0,255-11.997,210,179.004,589.004c65,126.992,131.997,260,150,295.996c70.996,142.002,55.996,174.004-103.003,210
		c-165,37.002-331.001,106.001-441.001,181.001c-190.996,131.001-326.997,596.997-453.999,967.998
		C612.002,4847.998,602.998,4921,585,5292.998c-17.002,360-28.999,475-56.001,575c-21.997,84.004-36.997,115-85,182.002
		C370,6152.001,278.999,6438.999,240,6617.998C220,6706,212.998,6855,227.998,6863.999c12.002,7.002,198.003,43.999,278.003,55
		C618.999,6935,927.998,6925,1062.998,6901z M8959.999,6886c47.002-8.999,110-22.002,140-28.999l55-12.002l2.998-73.999
		c7.002-173.999-98.994-563.999-228.994-763.003c-91.006-137.998-110-245-134.004-747.998
		c-17.998-382.998-25.996-441.001-70.996-572.002c-122.002-350-253.008-705.996-448.008-860
		C8177.998,3750,7992.998,3670,7815,3628.999c-120.996-26.997-150.996-49.995-140.996-106.997c2.998-20,72.998-100,155-262.998
		C7912.001,3095.996,7975.996,2940,7995,2890c55.996-142.998,65.518-238.73,77.998-430c20.254-310.332-63.994-624.004-355.996-1400
		c-62.998-167.998-154.004-339.004-166.006-380c-30.996-112.002-45-260-32.998-355c5-44.004,7.998-82.002,6.006-84.004
		c-8.008-8.994-339.004,21.006-440,39.004C6677.001,352.998,6317.001,520,5970,797.002
		c-117.998,93.994-349.004,327.002-454.004,457.998C5345,1470,5185,1732.002,5090,1952.998
		c-82.002,192.998-87.002,222.002-94.004,537.998c-2.998,152.002-15,480-26.992,730c-18.008,386.006-20,474.004-10,589.004
		c6.992,73.999,15,200,17.998,280l5.996,145l106.006,135c480,617.002,1016.992,1175,1511.992,1571.001
		C7050,6301,7442.998,6603.999,7875,6765c134.004,50,384.003,112.002,525,130C8545.995,6912.998,8839.999,6907.998,8959.999,6886z
		 M4725.996,4660c33.008,0,91.006-53.999,120-112.002C4905,4431,4920,4200,4892.001,3830C4879.003,3671,4880,3613.999,4900,3220
		c57.998-1170,30.996-1742.002-90-1907.998c-85-117.998-177.002,23.994-234.004,362.998C4530,1949.004,4512.998,2234.004,4500,2945
		c-5.996,345-17.002,671.001-27.002,805c-35.996,477.998-12.002,745,77.998,853.999c38.008,46.001,83.008,68.003,123.008,61.001
		C4690,4662.001,4712.998,4660,4725.996,4660z"/>
	<path d="M603.999,6671C442.002,6642.001,455,6492.998,641.001,6235c231.001-317.998,231.001-317.998,225-345
		c-2.002-13.999-17.002-58.999-32.002-100c-23.999-65-27.998-90-27.998-190c-1.001-96.001,1.997-122.002,20-160
		C872.998,5338.999,913.999,5311,1188.999,5201C1611.001,5030,2482.998,4721,3425,4407.998
		c617.002-205,810.996-262.998,840.996-250.996c25,8.999,15,55-22.998,101.997C4045,4502.998,3717.001,4862.998,3454.004,5125
		C2566.001,6012.001,1753.999,6532.998,1070,6655C967.002,6672.998,672.002,6683.999,603.999,6671z M1100,6575
		C1668.999,6457.001,2323.999,6062.998,3059.004,5396c307.998-278.999,1153.359-1103.325,1102.08-1145.894
		c-50.088-41.582-1328.086,432.891-1701.084,563.892c-797.002,278.999-1291.001,465-1462.002,552.002
		c-136.997,68.999-165,246.997-72.998,451.997c42.998,96.001,33.999,116.001-157.998,375
		C647.002,6355,573.999,6476,563.999,6527.001C551.001,6597.998,592.998,6611,810,6605C936.001,6602.001,1005,6595,1100,6575z"/>
	<path d="M962.998,4960c-60-12.998-100.996-37.002-123.999-72.998c-40-64.004-10-263.003,68.003-444.004
		c81.997-192.998,265-415.996,426.997-521.997c128.999-83.999,135-85,546.001-78.003
		c583.999,11.001,2401.611,8.223,2401.611,129.341c0,91.289-865.615,284.663-1371.611,455.659
		c-1157.002,391.001-1372.002,459.004-1602.998,506.001C1167.002,4962.001,1023.999,4972.998,962.998,4960z M1290,4863.999
		c236.001-50,540-146.001,1410-443.999c470-160,1351.103-365.923,1349.98-422.334c-0.908-45.718-475.976-24.668-659.98-32.666
		c-642.998-27.998-1147.998-45-1507.998-52.002L1520,3907.001l-72.998,36.997c-189.004,96.001-400,342.002-488.003,568.999
		C917.998,4620,890,4732.001,890,4790c0,53.999,22.998,82.002,80,98.999C1018.999,4903.999,1153.999,4892.998,1290,4863.999z"/>
	<path d="M4159.624,3773.999c-10.728-1.997-281.05-21.997-600.171-43.999c-1020.781-71.001-1433.579-112.002-1504.819-150.996
		c-56.601-31.006-299.595-477.002-381.572-699.004c-94.663-255.996-119.058-387.998-118.081-635
		c0-172.002,2.925-199.004,25.376-287.002c14.639-52.998,38.057-122.002,53.672-155l27.324-57.998l48.794-2.998
		c40.986-2.002,62.456,3.994,138.579,42.002c303.496,150.996,1094.941,768.994,2081.567,1625
		C4238.671,3676,4281.611,3717.998,4281.611,3751c0,27.998-0.972,28.999-50.747,27.998
		C4202.568,3777.998,4170.356,3776,4159.624,3773.999z M4130.351,3690c3.433-29.756-357.173-315.996-609.931-530.996
		C2731.904,2489.004,2076.103,1985,1822.373,1855c-47.817-25-93.687-45-101.489-45c-16.597,0-54.653,95-80.029,200
		c-27.319,110.996-25.371,387.998,2.935,520c63.433,289.004,206.885,615.996,404.014,917.002
		c45.864,68.994,49.77,72.002,98.569,82.002C2306.416,3562.001,2648.95,3596,3276.445,3640
		c239.097,17.002,515.268,37.002,614.809,43.999C4116.772,3711.279,4130.004,3717.895,4130.351,3690z"/>
	<path d="M4095.327,3355.42c-39.78-34.502-170.874-157.578-292.92-274.121c-288.403-275.957-395.078-372.93-592.168-539.824
		c-410.444-347.764-799.194-628.398-1332.598-963.105c-62.373-39.16-64.189-43.818-37.065-124.922
		c10.85-29.834,42.495-141.719,72.324-247.08c28.931-105.352,63.281-220.039,75.942-254.531
		c144.648-396.24,395.986-480.156,864.292-289.023c425.811,174.346,788.344,482.021,1018.882,864.277
		c221.499,368.281,344.448,798.096,375.19,1307.148c10.854,190.195,0.903,438.193-21.699,531.436
		C4208.339,3436.523,4184.824,3434.658,4095.327,3355.42z M4186.635,3090.635c14.463-323.525-42.49-719.766-149.17-1037.705
		C3845.8,1480.478,3486.88,1056.26,2975.18,797.07c-310.093-156.631-516.221-199.531-669.009-139.854
		c-75.034,29.834-160.02,118.418-209.746,219.102c-44.302,89.502-68.711,162.236-128.374,379.473
		c-25.322,90.43-51.533,181.797-58.765,204.17c-7.236,21.445-6.201,24.824-4.102,45.703c3.008,14.521,27.607,25.166,63.77,46.601
		c190.757,116.553,541.538,353.369,745.859,504.395c397.788,294.629,679.858,535.166,1134.604,969.629
		c122.046,117.49,269.438,316.719,307.852,307.773C4206.972,3322.49,4183.017,3169.873,4186.635,3090.635z"/>
	<path d="M8379.999,6636c-382.001-55-785-225-1235.996-522.002C6820,5901,6435.996,5591,6139.003,5302.001
		c-53.008-51.001-106.006-100-117.002-108.003c-32.998-22.998-435-446.001-589.004-618.999C5190,4300,5100,4187.998,5100,4158.999
		c0-33.999,15.996-40,70.996-27.998c138.008,31.001,855,266.001,1749.004,573.999
		c807.998,277.998,1504.003,547.998,1567.001,607.002c95,88.999,120,276.997,58.994,447.998c-45,125-47.998,112.002,53.008,251.001
		c228.994,315,290,421.997,290.996,503.999c0,52.998-17.002,83.999-59.004,108.999c-30,17.002-55.996,20-195,22.002
		C8537.997,6647.998,8437.997,6643.999,8379.999,6636z M8792.997,6557.001c16.006-10,27.002-26.001,27.002-40
		c0-53.003-72.998-172.002-265-432.002c-90-122.998-124.004-183.999-125-221.001c0-11.997,12.998-50,29.004-85
		c70-156.997,65.996-303.999-11.006-391.997c-52.002-60-317.001-169.004-1018.994-423.003
		C6865.996,4761,5370.996,4256,5270.996,4235c-33.994-7.002-32.998-6.001,53.008,96.001
		c285,336.997,703.994,771.001,1008.994,1046.001C7129.003,6095,7815.996,6487.998,8419.999,6570
		c35.996,3.999,127.998,7.998,205,7.002C8740.995,6575,8770.995,6572.001,8792.997,6557.001z"/>
	<path d="M8219.999,4930c-220-27.998-445.996-93.999-1155-332.998C6009.003,4241,5714.003,4147.001,5290,4031
		c0,0-88.701-21.968-150.596-41.138c-68.701-21.279-78.613-78.047-4.404-81.865c135-17.998,1780.996-83.999,2365-95
		c410-6.997,417.002-5.996,545,78.003C8274.003,4040,8467.001,4321,8535.995,4605c44.004,183.999,28.008,267.002-60,306.001
		C8424.003,4933.999,8312.001,4942.001,8219.999,4930z M8404.003,4858.999c20.996-6.001,50-21.997,63.994-36.001
		c22.002-21.997,24.004-30,19.004-85.996c-17.998-205-154.004-473.003-332.001-653.003c-84.004-85-207.998-173.999-272.998-195
		c-60-20-802.002-1.997-1892.002,46.001c-184.004,7.998-638.604-7.866-647.002,32.002c-10.127,48.057,819.004,246.997,1802.002,580
		c507.002,171.997,695.996,230,885,273.999C8235.995,4867.998,8334.999,4877.998,8404.003,4858.999z"/>
	<path d="M5100,3742.998c0-25.996,14.004-42.998,82.998-105c251.006-225.996,907.998-768.994,1355-1122.002
		c460-360.996,865-647.998,1042.002-736.992c70.996-36.006,95-43.008,145-44.004h60l27.998,57.998c16.006,32.998,40,102.002,55,155
		c22.998,87.998,25,114.004,26.006,292.002c0,225.996-14.004,312.002-90,539.004C7715,3047.002,7445,3542.998,7372.998,3570.996
		c-108.994,41.006-480,77.002-1522.998,149.004c-322.002,22.002-622.002,42.998-667.002,46.001l-82.998,6.997V3742.998z
		 M5785.996,3655c955-63.999,1360-100.996,1509.004-137.998c50-12.002,50-12.998,132.998-142.002
		c160-250.996,300-557.998,356.006-782.998c68.994-274.004,60-522.998-25-739.004c-13.008-32.002-27.002-52.998-37.002-52.998
		c-87.998,0-652.998,390.996-1247.002,865c-440.996,352.002-1233.848,983.72-1223.057,1024.536
		C5259.833,3719.365,5316.25,3682.934,5785.996,3655z"/>
	<path d="M5155.273,3398.301c-16.631-25.068-24.023-225.576-14.785-379.678c28.652-480.859,130.332-888.389,316.133-1261.563
		c232.959-469.717,569.434-812.266,1011.309-1026.699c209.824-102.109,352.178-143.887,489.922-143.887
		c144.189,0,236.641,38.047,327.236,134.6c85.957,92.832,143.271,219.082,222.773,496.641
		c20.332,70.557,49.004,165.234,64.707,210.732c33.271,97.461,34.209,109.531,7.393,127.168
		c-12.012,6.504-99.834,61.27-195.039,120.684c-672.949,417.744-1170.283,802.051-1785.928,1375.742
		c-158.076,146.689-301.367,277.578-358.672,326.758C5206.123,3408.515,5166.376,3417.793,5155.273,3398.301z M5319.824,3211.709
		c56.396-51.982,178.408-164.307,269.922-248.779c629.502-586.689,1149.014-978.447,1914.424-1444.433
		c19.414-11.143,18.477-12.998-43.457-223.73c-100.762-337.891-140.508-427.939-226.475-521.709
		c-132.197-143.887-305.039-158.73-577.734-51.055c-770.029,304.482-1285.85,1031.348-1422.646,2003.281
		c-32.354,233.008-75.791,559.014-30.449,576.973C5227.167,3311.67,5262.509,3263.701,5319.824,3211.709z"/>
</g>
</svg>
