<?xml version="1.0" encoding="utf-8"?>
<!-- Generator: Adobe Illustrator 16.0.0, SVG Export Plug-In . SVG Version: 6.00 Build 0)  -->
<!DOCTYPE svg PUBLIC "-//W3C//DTD SVG 1.1//EN" "http://www.w3.org/Graphics/SVG/1.1/DTD/svg11.dtd">
<svg version="1.1" id="Layer_1" xmlns="http://www.w3.org/2000/svg" xmlns:xlink="http://www.w3.org/1999/xlink" x="0px" y="0px"
	 width="1008px" height="744px" viewBox="0 0 1008 744" enable-background="new 0 0 1008 744" xml:space="preserve">
<g id="Layer_1_1_">
	<g transform="translate(0.000000,1000.000000) scale(0.100000,-0.100000)">
		<path d="M5078.925,9657.842c-520.186-25.234-986.992-118.398-1293.662-261.064c-101.904-46.582-216.416-120.338-372.676-239.713
			c-65.986-50.463-155.273-115.488-199.912-144.6c-95.107-62.113-302.793-166.924-397.9-200.889
			c-183.423-65.023-428.96-92.197-695.84-76.674c-93.164,5.824-179.541,7.768-193.13,4.854
			c-36.875-8.736-57.256-32.021-57.256-65.02c0-32.031,93.169-210.596,346.465-668.667
			c82.49-148.486,159.248-260.337,144.604-275.62c-18.262-17.773-252.329,76.67-367.817,153.34
			c-280.474,188.271-531.831,455.157-891.88,947.198c-22.319,31.055-47.554,53.379-63.081,57.256
			c-32.026,8.73-54.346-15.527-149.458-160.127c-282.412-428.961-295.996-1013.194-32.993-1383.917
			c54.346-76.67,201.86-216.426,275.615-262.041l58.232-35.908l-55.317-36.875c-224.184-147.52-335.791-429.922-318.32-805.508
			c10.674-225.146,50.464-435.751,138.779-723.007c59.199-195.068,81.523-244.57,112.573-256.211
			c44.644-16.494,58.232-3.877,209.629,191.182c278.53,361.992,565.796,607.529,1118.975,956.914
			c128.101,80.547,153.335,93.154,153.335,75.693c0-4.854,18.438-37.852,40.762-75.693
			c277.559-462.929,807.451-766.689,1553.75-891.884c166.924-28.154,435.752-53.379,563.857-53.379h85.4l-85.4-90.254
			c-139.756-146.553-210.596-295.996-242.627-513.389c-35.908-244.57,4.854-524.063,136.836-928.76
			c84.434-257.178,100.938-266.885,278.535-150.43c62.109,41.738,136.836,102.881,197.969,164.014
			c82.5,81.533,103.848,109.668,137.813,179.541c72.793,151.396,104.805,313.467,128.105,649.268
			c5.82,82.49,17.461,187.295,25.234,232.91c14.551,86.367,30.313,190.674,42.246,206.367c7.07,7.08,19.863,2.295,32.48-9.355
			c70.84-65.996,225.156-87.344,322.207-42.705c58.223,26.201,125.195,89.287,152.363,142.666l19.414,37.852l31.055-36.885
			c84.434-104.814,118.398-158.193,182.441-282.412c245.547-482.334,357.148-619.17,594.922-728.838
			c180.508-83.467,433.809-123.252,464.863-72.783c8.73,13.584-11.641,340.635-29.121,474.561
			c-40.762,317.354-124.219,566.777-249.414,754.072c-65.02,97.051-185.371,208.662-273.672,254.277
			c-74.727,37.842-201.855,81.514-278.535,96.064c-20.371,2.92-36.875,8.74-35.918,12.627c0,2.91,31.055,21.348,68.926,38.818
			c84.434,42.695,229.023,136.836,341.602,226.123l86.367,68.906l44.648-15.527c74.707-26.201,129.063-29.111,194.082-12.617
			c113.555,29.121,216.426,111.611,261.074,208.652c46.582,101.904,17.461,244.854-78.613,361.309c0,0-46.523,40.732-43.672,55.322
			c3.672,14.072,67.93,25.234,67.93,25.234c223.223,82.49,341.621,198.662,354.238,367.52
			c17.461,230-116.465,400.811-363.945,463.887c-39.785,9.707-73.75,19.414-74.727,21.348
			c-0.957,0.977-22.324,52.422-48.516,113.555c-102.871,244.565-281.445,581.323-443.516,834.624
			c-76.66,120.342-77.637,122.285-91.23,218.359c-50.469,361.992-138.789,632.764-269.805,834.619l-54.336,82.5l-525.996-1.943
			C5477.792,9666.572,5168.203,9661.719,5078.925,9657.842z M5906.737,9273.525l42.637,52.725
			c40.205,47.602,55.254,70.254,136.875,131.25c0,0,24.297,20.586,7.266,34.023c-11.416,9.008-35.156-10.684-35.156-10.684
			c-83.457-58.229-131.23-119.971-209.844-218.961c-102.871-129.076-179.55-252.324-267.851-432.836
			c-176.641-358.111-284.355-750.186-340.645-1232.52c-24.258-202.832-24.258-657.988-0.977-832.676
			c45.625-336.768,147.52-678.378,283.398-942.353l51.426-99.961l27.773-54.873c40.049,5.801,82.227,1.621,124.59-13.057
			c36.719-12.432,75.41-40.967,105.546-75.088c0,0,11.992-20.283,40.83-9.473s29.287,26.348,29.287,26.348
			c-1.904,9.404,2.9,10.898,13.594,13.574c10.664,2.91,86.367,32.988,167.891,65.986c81.523,33.975,152.363,61.143,157.207,62.119
			c5.82,0.967,49.492-7.773,97.051-18.447c217.402-46.582,326.094-97.041,430.898-197.979
			c38.828-37.842,89.277-95.107,112.578-127.129c157.227-221.27,255.234-590.059,273.691-1030.664l5.82-148.486h-38.828
			c-95.098,0-274.648,47.559-381.406,101.904c-199.902,99.961-302.793,228.066-514.355,635.674
			c-96.074,187.305-181.484,318.32-246.504,377.52c-21.348,20.381-25.234,32.021-25.234,76.67v53.369l119.375-5.82
			c205.742-10.674,334.824-60.166,442.539-169.834c76.66-78.613,119.375-155.273,191.191-349.375
			c56.289-151.396,65.02-167.891,82.48-150.42c11.66,11.641-68.887,245.527-122.266,352.285
			c-118.418,235.82-295.039,340.635-599.766,357.139l-124.219,6.787c-38.008,42.1-61.006-9.346-61.006-9.346
			c29.512-95.605,7.236-187.041-64.189-257.539c-101.914-102.861-257.188-102.861-359.082,0
			c-13.428,13.301-25.098,27.51-35.02,42.402c0,0-17.813,16.963-46.943,0.469c-19.561-11.074-3.447-43.838-3.447-43.838
			l-24.258-98.984c-38.828-157.227-51.426-249.424-65.02-477.49c-24.258-396.934-100.938-598.789-289.199-757.939
			c-71.836-61.152-226.133-166.934-250.391-170.811c-27.178-4.854-50.469,40.762-100.938,200.889
			c-102.861,324.15-137.813,506.592-137.813,723.018c0,312.5,97.051,541.523,299.893,712.334l72.783,61.143l137.813,7.764
			c74.707,3.887,161.094,10.674,190.215,14.561c29.102,3.877,67.93,7.754,85.391,8.73c29.121,0.967,31.055-0.977,31.055-31.055
			c0-30.088-2.91-32.998-44.629-43.672c-71.816-19.414-178.574-72.783-244.57-122.285
			c-191.182-145.576-282.412-414.395-244.561-721.074c11.65-98.994,29.121-143.633,46.582-124.219
			c5.83,5.82,3.887,41.729-4.854,97.051c-18.428,116.455-10.664,295.029,16.504,393.047
			c58.223,205.742,201.855,358.115,402.754,427.012c31.055,10.674,51.523,21.162,66.953,19.414c0,0,7.471-28.457,45.283-13.125
			s22.012,39.961,22.012,39.961c-11.543,75.957,13.262,155.615,74.404,216.748c22.148,22.158,52.617,42.852,78.857,55.391
			l-28.389,53.311l-102.891,118.398c-154.297,179.541-228.066,281.445-278.516,388.193c-73.77,156.25-93.164,290.186-61.152,439.629
			c21.367,96.084,21.367,113.555,3.887,113.555c-46.582,0-71.816-290.186-35.898-422.168
			c39.785-151.387,145.566-318.31,340.645-542.5c73.75-83.457,87.949-107.49,79.199-116.211
			c-16.484-16.504-70.469,13.34-203.438,118.154c-61.133,49.492-186.328,147.51-276.582,219.336
			c-259.111,204.765-362.959,267.851-493.008,297.929c-78.604,18.438-163.037,15.537-163.037-5.82
			c0-11.65,18.438-16.504,78.604-21.348c165.967-13.584,272.715-76.67,663.809-388.203
			c135.879-107.715,273.926-206.465,302.07-224.902c37.695-21.465,49.258-46.855,8.496-38.467
			c-9.707,1.943-38.828,9.102-92.207,17.842c-368.77,61.133-739.502,190.215-1076.27,375.576
			c-138.779,76.67-532.793,325.117-628.867,397.9c-299.883,226.123-876.352,873.438-1099.565,1235.43
			c-26.201,42.705-50.464,79.58-53.374,82.49c-18.438,14.561-491.309,889.209-502.227,916.504c0,0-9.951,20.264-4.946,25.723
			c7.583,16.074,290.757-4.736,290.757-4.736c244.561-0.967,303.76,1.943,386.25,17.471
			c158.188,29.111,253.291,61.143,409.551,136.836c172.744,83.467,249.414,131.992,471.65,297.939
			c187.305,139.756,281.436,196.035,421.191,250.391c350.342,137.813,823.945,214.473,1400.42,226.123
			c237.754,5.824,922.177,29.057,960.41,5.805s59.805-68.91,59.805-68.91c17.48-28.145,46.348-86.348,66.719-129.049
			c50.469-105.781,98.027-247.475,133.926-397.9c27.188-116.459,69.727-301.455,54.355-305.703
			c-13.301-3.676-26.191,24.264-54.355,55.318c-133.76,142.402-434.58,399.516-595.244,514.584
			c-15.244,10.918-30.869,26.793-42.471,8.355c-11.426-18.154,22.422-41.822,22.422-41.822
			c233.594-169.727,571.621-470.443,694.883-643.188c97.051-135.869,249.414-394.99,359.082-612.378
			c92.188-181.479,194.102-406.636,194.102-427.993c0-4.844-16.504-28.145-35.918-51.426
			c-20.371-22.324-71.816-98.994-113.555-170.811c-41.719-71.816-98.008-159.16-125.176-196.035
			c-94.141-129.072-218.76-198.848-342.979-224.082c-61.133-11.65-81.123-44.746-81.123-75.801
			c0-17.471-0.586-31.729,94.316-109.209c62.676-42.324,128.652-200.488,172.559-412.91
			c17.461-75.703,33.965-114.521,64.043-154.316c10.684-12.617,18.457-26.191,18.457-30.078
			c0-7.764-190.215-151.396-271.738-203.809c-56.289-35.908-234.863-126.162-388.203-196.035
			c-29.121-13.584-102.871-43.672-163.047-66.963c-90.254-33.965-113.535-39.795-126.152-30.088
			c-71.816,52.412-141.699,79.58-200.898,79.58c-28.145,0-33.965,6.797-70.84,70.85c-94.141,165.957-199.922,458.066-252.324,701.65
			c-42.715,194.111-61.133,350.361-66.973,571.631c-21.348,778.33,198.945,1590.625,571.621,2103.047L5906.737,9273.525z
			 M2367.085,7004.521c25.234-139.756,59.199-262.998,104.814-385.283c21.348-58.232,47.847-106.758,45.903-108.701
			c-1.934-0.967-95.103-60.156-207.681-131.016c-536.68-340.634-828.799-598.779-1128.677-997.656
			c-45.615-61.143-87.344-108.701-93.169-106.758c-15.527,4.854-48.525,93.174-98.989,265.918l-44.644,153.34l30.083,78.604
			c79.585,207.686,209.629,336.768,464.863,463.906c86.377,43.672,103.848,59.189,75.703,69.863
			c-17.471,6.797-152.368-61.133-253.301-126.162c-150.43-98.017-238.74-198.955-301.821-343.544l-31.06-71.826l-10.674,51.436
			c-35.908,164.014-67.939,459.052-55.317,507.578c5.815,23.281,98.989,119.365,146.548,152.354
			c90.254,61.152,242.622,119.375,393.047,149.463c88.311,17.461,107.725,27.168,90.254,44.639
			c-25.229,25.234-323.174-59.199-446.426-127.129c-37.851-21.357-80.4-51.26-106.025-80.674c0,0-60.352-67.939-70.054-50.039
			c-15.552,28.662,73.213,319.951,146.963,417.969c55.322,71.816,109.668,117.432,206.719,172.754l72.788,42.695l-71.816,38.818
			C1010.64,7202.5,852.505,7379.16,775.84,7598.496c0,0-22.593,45.488-12.676,51.396c9.644,5.918,72.119-51.396,72.119-51.396
			c38.818-29.121,89.951-64.082,118.096-78.643c89.282-44.648,261.059-81.523,395.957-86.377
			c55.322-1.934,67.935,0.967,67.935,12.617c0,10.674-17.466,16.504-67.935,22.324c-204.771,22.324-350.347,61.143-431.865,116.445
			c-98.022,65.996-163.042,124.238-173.716,154.316c-16.499,46.582-31.06,246.504-24.263,323.174
			c6.792,79.58,32.021,237.774,39.79,250.381c2.91,4.857,21.348-21.348,40.757-58.229c82.49-157.216,167.9-249.414,307.646-332.875
			c135.869-80.547,326.089-157.222,345.498-137.813c16.494,16.504,1.934,27.178-76.675,55.322
			c-299.878,105.776-471.655,256.201-576.47,505.625l-20.391,48.525l34.941,86.367c41.733,102.871,96.074,198.955,163.042,291.152
			l49.492,67.93l22.324-29.111c12.622-16.494,67.944-90.25,124.229-164.98c55.322-74.727,136.841-179.541,181.484-232.916
			c124.219-150.424,397.9-418.281,518.242-507.563c133.926-99.966,266.831-159.717,341.084-180.957s203.979-49.795,236.265-105.83
			c50.464-81.523,260.649-371.143,404.282-541.953c164.98-195.059,550.512-581.65,666.977-670.947
			c125.195-96.064,488.408-321.25,673.76-423.154c352.295-191.172,773.721-325.02,1138.623-375.479c0,0,22.822-4.648,29.092-17.021
			c8.203-15.693-4.619-37.207-4.619-37.207l-24.707-44.561l-99.961-12.617c-147.52-19.404-648.281-17.471-839.473,3.877
			c-1037.461,115.498-1677.973,525.039-1904.092,1217.001c-33.34,101.792-57.993,204.751-73.921,308.398
			c0,0-11.157,71.841-39.546,67.788C2349.795,7087.451,2367.085,7004.521,2367.085,7004.521z M6508.749,6852.5
			c3.994,36.934,134.209,46.963,207.148,106.831c105.781,66.973,197.246,164.565,336.992,403.306
			c32.988,57.256,74.727,119.375,92.207,136.836l31.055,32.031l65.996-13.594c35.898-7.754,94.141-27.168,128.105-43.672
			c128.086-59.199,194.082-144.6,214.473-277.559c32.012-205.752-77.637-332.588-352.285-428.662l-85.41-30.088l-414.16,83.11
			c0,0-14.434,3.491-17.715-11.821s12.051-18.721,12.051-18.721s316.602-84.272,371.143-93.086
			c28.75-4.648,40.908,2.666,89.443-43.916c79.57-75.693,120.332-169.15,120.332-255.527
			c-0.957-77.637-24.258-127.129-87.344-182.451c-68.887-60.166-124.219-83.466-208.652-87.343
			c-66.973-2.91-77.637-0.977-135.859,29.111c-76.68,39.795-90.293,71.143-119.395,200.215
			c-27.891,158.35-54.375,295.625-175.674,407.222C6581.2,6764.721,6506.249,6829.375,6508.749,6852.5z"/>
		<path d="M5944.667,8604.857c-125.175-32.992-228.046-119.369-287.246-239.707c-40.762-81.523-48.535-134.902-22.324-140.723
			c11.641-1.938,21.348,5.82,28.145,24.264c65.996,159.16,119.375,227.094,216.425,274.648
			c186.328,92.197,363.926,40.762,519.199-149.453c20.391-25.234,23.301-26.207,37.852-11.65
			c21.348,21.352,3.887,50.469-76.66,126.162C6236.796,8604.857,6093.163,8644.648,5944.667,8604.857z"/>
		<path d="M5995.136,8276.836c-230.957-75.703-367.792-370.728-307.636-663.809c33.008-162.08,131.016-302.793,254.277-362.969
			c56.27-28.145,73.75-32.031,142.656-32.031s86.367,3.887,142.656,32.031c296.973,145.566,361.992,650.225,118.398,913.228
			C6248.456,8268.1,6107.733,8313.711,5995.136,8276.836z M6183.417,8210.84c72.793-27.173,152.383-105.782,194.102-192.154
			c30.449-56.416,43.398-95.034,29.414-102.5c-10.957-5.85-16.387,5.508-31.738,32.48
			c-85.41,150.425-202.969,185.405-319.883,153.481c-230-106.753-281.445-523.096-89.277-730.781
			c42.695-45.605,74.727-66.963,137.813-86.367l38.809-12.617h-50.469c-78.594-0.977-153.32,31.055-216.406,95.098
			c-193.144,195.078-193.144,573.564,0,768.633C5966.034,8227.338,6070.839,8253.545,6183.417,8210.84z M6045.604,7906.108
			c26.211-17.466,53.379-78.613,53.379-120.342s-27.168-102.876-53.379-120.337c-48.516-32.031-99.961-9.707-125.195,53.374
			c-19.414,48.525-19.414,86.372-0.957,132.954C5946.62,7915.81,5997.089,7938.134,6045.604,7906.108z"/>
		<path d="M397.324,2726.221c0,0,101.777,188.584,877.715,417.246c591.138,174.199,1505.059,370.771,2486.699,370.771
			c78.384,0,157.192-1.279,234.248-3.818c939.37-30.889,1390.068-138.516,1752.217-224.99
			c262.958-62.793,470.664-112.393,782.46-112.393c176.826,0,379.688,16.357,620.176,50
			c389.482,54.492,660.791,106.201,878.789,147.744c257.344,49.043,427.354,81.445,604.59,81.445
			c195.742,0,394.717-38.721,734.18-142.871l1.406-0.469c469.141-169.6,560.703-531.582,564.375-546.904l8.838-36.943
			L397.324,2726.221z M3760.942,3471.152c-974.697,0-1877.026-198.506-2465.942-366.602
			c-421.811-120.391-904.136-333.506-694.014-341.006l9281.601,1.963c-36.143,93.291-149.014,364.229-531.055,500.859
			c-327.715,117.207-528.926,134.59-717.969,134.59c-171.572,0-360.439-30.381-614.424-78.789
			c-218.652-41.67-471.826-95.352-862.803-149.766c-267.08-37.168-438.926-44.639-618.564-44.639
			c-318.857,0-516.67,57.266-807.607,124.492C4781,3471.592,3838.667,3471.152,3760.942,3471.152z"/>
	</g>
	<path d="M124.422,803.672"/>
</g>
<path d="M872.031,665.363l-6.581-6.648c-1.562-1.577-3.801-3.639-6.637-6.248c-13.802-12.705-39.493-36.354-56.929-68.695
	c-21.506-39.892-23.635-80.485-6.328-120.654c43.026-99.86,36.614-156.517,36.545-157.077l-1.123-9.024l5.578,7.179
	c17.922,23.071,36.235,48.032,46,77.153c11.754,35.055,8.116,67.795-11.122,100.092c-36.63,61.494-16.401,127.03-5.534,162.238
	c1.51,4.892,2.813,9.116,3.743,12.64L872.031,665.363z M837.534,313.626c0.349,19.143-2.735,71.049-37.386,151.47
	c-39.048,90.63,34.401,158.239,62.052,183.692c0.02,0.018,0.038,0.035,0.058,0.053c-0.362-1.183-0.741-2.412-1.136-3.688
	c-5.291-17.145-13.288-43.054-15.177-72.275c-2.26-34.969,4.871-66.593,21.194-93.996
	C907.656,410.86,866.604,351.41,837.534,313.626z"/>
<path d="M869.45,666.495l-2.998-8.863c-0.572-1.69-1.468-3.981-2.601-6.882c-5.539-14.168-15.848-40.54-17.049-70.334
	c-1.484-36.804,11.436-67.214,38.401-90.386c66.626-57.249,82.065-100.639,82.214-101.07l2.95-8.593l1.862,8.891
	c4.853,23.184,9.317,47.888,6.07,72.61c-3.917,29.817-18.257,52.45-43.84,69.191c-48.299,31.606-56.835,86.321-61.42,115.716
	c-0.64,4.1-1.192,7.64-1.769,10.543L869.45,666.495z M968.944,398.057c-7.2,14.966-28.257,50.891-80.482,95.767
	c-59.229,50.896-32.028,124.15-20.571,153.526c0.069-0.441,0.139-0.89,0.21-1.345c4.705-30.162,13.464-86.306,63.622-119.129
	C984.428,492.387,976.568,435.754,968.944,398.057z"/>
<path d="M247.689,672.225l-6.631-5.004c-1.386-1.045-3.382-2.418-5.909-4.155c-12.351-8.492-35.339-24.3-50.98-45.973
	c-19.487-27.003-21.406-54.499-5.703-81.725c38.274-66.356,32.552-103.585,32.49-103.953l-1.263-7.471l5.461,5.252
	c16.058,15.442,32.472,32.158,41.26,51.737c10.545,23.494,7.162,46.355-10.056,67.949c-32.291,40.495-14.407,83.774-4.8,107.026
	c1.354,3.276,2.523,6.105,3.363,8.483L247.689,672.225z M216.335,437.303c0.118,13.771-3.351,48.229-33.538,100.563
	c-33.959,58.879,29.303,103.272,54.375,120.522c-0.078-0.188-0.156-0.379-0.235-0.57c-9.289-22.479-28.616-69.255,5.512-112.053
	c16.182-20.294,19.258-40.831,9.404-62.784C244.261,466.067,230.481,451.144,216.335,437.303z"/>
<path d="M244.602,672.561l-2.892-6.387c-0.498-1.1-1.291-2.615-2.295-4.534c-4.984-9.526-14.262-27.258-15.349-47.39
	c-1.348-24.973,10.311-45.558,34.652-61.183c59.456-38.165,72.998-66.776,73.127-67.062l2.837-6.219l1.844,6.582
	c4.37,15.598,8.391,32.228,5.446,48.972c-3.555,20.218-16.479,35.519-39.51,46.777c-42.849,20.946-50.406,57.133-54.465,76.572
	c-0.575,2.751-1.071,5.127-1.594,7.095L244.602,672.561z M333.273,493.479c-6.687,10.266-25.68,34.156-71.855,63.796
	c-51.767,33.23-28.567,80.948-18.351,100.56c0.012-0.055,0.023-0.11,0.035-0.165c3.933-18.833,12.117-58.021,57.164-80.043
	C343.576,556.455,341.438,524.812,333.273,493.479z"/>
<circle cx="870.316" cy="656.955" r="16.408"/>
<circle cx="243.285" cy="661.13" r="12.179"/>
<path d="M235.65,247.97"/>
</svg>
